<svg width="16" height="16" viewBox="0 0 16 16" fill="none" xmlns="http://www.w3.org/2000/svg">
<path d="M15.7822 13.8444L12.6556 10.7178C12.5104 10.5726 12.3333 10.5 12.1244 10.5H11.6244C12.5415 9.33407 13 8.00074 13 6.5C13 5.31185 12.7081 4.22296 12.1244 3.23333C11.5422 2.24519 10.7563 1.45926 9.76667 0.875556C8.77704 0.291852 7.68815 0 6.5 0C5.31185 0 4.22296 0.291852 3.23333 0.875556C2.24519 1.45926 1.45926 2.24519 0.875556 3.23333C0.291852 4.22296 0 5.31185 0 6.5C0 7.68815 0.291852 8.77704 0.875556 9.76667C1.45926 10.7563 2.24519 11.5422 3.23333 12.1244C4.22296 12.7081 5.31185 13 6.5 13C8.00074 13 9.33407 12.5415 10.5 11.6244V12.1244C10.5 12.3333 10.5726 12.5104 10.7178 12.6556L13.8444 15.7822C13.9896 15.9274 14.1667 16 14.3756 16C14.583 16 14.76 15.9274 14.9067 15.7822L15.7822 14.9067C15.9274 14.76 16 14.583 16 14.3756C16 14.1667 15.9274 13.9896 15.7822 13.8444ZM6.5 10.5C5.77111 10.5 5.09926 10.323 4.48444 9.96889C3.86963 9.61481 3.38519 9.13037 3.03111 8.51556C2.67704 7.90074 2.5 7.22889 2.5 6.5C2.5 5.77111 2.67704 5.09926 3.03111 4.48444C3.38519 3.86963 3.86963 3.38519 4.48444 3.03111C5.09926 2.67704 5.77111 2.5 6.5 2.5C7.22889 2.5 7.90074 2.67704 8.51556 3.03111C9.13037 3.38519 9.61481 3.86963 9.96889 4.48444C10.323 5.09926 10.5 5.77111 10.5 6.5C10.5 7.22889 10.323 7.90074 9.96889 8.51556C9.61481 9.13037 9.13037 9.61481 8.51556 9.96889C7.90074 10.323 7.22889 10.5 6.5 10.5Z" fill="#111111"/>
</svg>
